<?xml version="1.0" encoding="UTF-8"?>
<svg id="Camada_2" data-name="Camada 2" xmlns="http://www.w3.org/2000/svg" viewBox="0 0 390.4 420.32">
  <defs>
    <style>
      .cls-1 {
        fill: #7c13f1;
      }
    </style>
  </defs>
  <g id="logo-1">
    <path class="cls-1" d="M0,120.42v179.49c.02,10.95,6.01,21.02,15.62,26.28l165.17,90.41c8.97,4.96,19.86,4.96,28.83,0l165.17-90.41c9.61-5.26,15.59-15.33,15.62-26.28V120.4c-.02-10.95-6.01-21.02-15.62-26.28L209.61,3.72c-8.97-4.96-19.86-4.96-28.83,0L15.62,94.09C5.99,99.36,0,109.45,0,120.42ZM44.39,112.58L195.2,29.99l150.81,82.58-150.81,82.58L44.39,112.58ZM30.03,299.91v-160.96s150.15,82.17,150.15,82.17v161.06S30.03,299.91,30.03,299.91Z"/>
  </g>
</svg>