<?xml version="1.0" encoding="UTF-8"?>
<svg id="Camada_2" data-name="Camada 2" xmlns="http://www.w3.org/2000/svg" viewBox="0 0 1397.99 420.32">
  <defs>
    <style>
      .cls-1 {
        fill: #7c13f1;
      }
    </style>
  </defs>
  <g id="logo-1">
    <g>
      <path class="cls-1" d="M0,120.42v179.49c.02,10.95,6.01,21.02,15.62,26.28l165.17,90.41c8.97,4.96,19.86,4.96,28.83,0l165.17-90.41c9.61-5.26,15.59-15.33,15.62-26.28V120.4c-.02-10.95-6.01-21.02-15.62-26.28L209.61,3.72c-8.97-4.96-19.86-4.96-28.83,0L15.62,94.09C5.99,99.36,0,109.45,0,120.42ZM44.39,112.58L195.2,29.99l150.81,82.58-150.81,82.58L44.39,112.58ZM30.03,299.91v-160.96s150.15,82.17,150.15,82.17v161.06S30.03,299.91,30.03,299.91Z"/>
      <g>
        <path class="cls-1" d="M586.77,355.31c-12.06,0-22.72-2.21-31.97-6.63-9.25-4.42-17.03-10.45-23.32-18.09-6.3-7.64-11.06-16.42-14.27-26.34l6.03-8.04-2.41,54.28h-45.03V65h47.45v121.83l-4.42-8.85c2.41-8.58,6.7-16.42,12.87-23.52,6.16-7.1,14-12.8,23.52-17.09,9.51-4.28,20.04-6.43,31.56-6.43,17.96,0,33.51,4.49,46.64,13.47,13.13,8.98,23.25,21.85,30.36,38.6,7.1,16.76,10.66,36.79,10.66,60.11s-3.56,43.36-10.66,60.11c-7.11,16.76-17.23,29.62-30.36,38.6-13.14,8.98-28.69,13.47-46.64,13.47ZM575.52,312.69c15.81,0,28.01-6.09,36.59-18.29,8.58-12.2,12.87-29.28,12.87-51.27s-4.29-39.07-12.87-51.27c-8.58-12.19-20.51-18.29-35.79-18.29-11,0-20.44,2.75-28.35,8.24-7.91,5.5-14.01,13.41-18.29,23.72-4.29,10.32-6.43,22.86-6.43,37.6s2.21,26.88,6.63,37.19c4.42,10.32,10.52,18.29,18.3,23.92,7.77,5.63,16.89,8.44,27.34,8.44Z"/>
        <path class="cls-1" d="M797.72,355.31c-20.1,0-37.73-4.56-52.88-13.67-15.15-9.11-26.94-22.12-35.38-39-8.44-16.89-12.67-36.72-12.67-59.51s4.15-42.15,12.46-58.91c8.31-16.75,19.97-29.82,34.98-39.2,15.01-9.38,32.43-14.07,52.27-14.07s36.39,4.56,51.27,13.67c14.88,9.12,26.54,22.11,34.98,39,8.44,16.89,12.67,36.99,12.67,60.31v12.46h-149.58c1.34,18.23,6.63,32.17,15.88,41.82,9.25,9.65,21.51,14.48,36.79,14.48,11.26,0,20.71-2.75,28.35-8.24,7.64-5.49,12.93-12.67,15.88-21.51l48.65,3.62c-6.7,21.45-18.09,38.27-34.18,50.46-16.08,12.2-35.92,18.29-59.51,18.29ZM746.65,221.82h97.31c-1.34-16.35-6.3-28.48-14.88-36.39-8.58-7.9-19.57-11.86-32.97-11.86s-24.46,4.09-33.17,12.26c-8.71,8.18-14.14,20.17-16.28,35.99Z"/>
        <path class="cls-1" d="M917.78,174.37v-38.6h193.81v38.6h-193.81ZM1050.07,350.49c-23.06,0-40.08-5.29-51.07-15.88-10.99-10.59-16.49-26.74-16.49-48.45V85.51h47.45v197.02c0,9.92,2.41,17.29,7.24,22.12s11.92,7.24,21.31,7.24h53.08v38.6h-61.52Z"/>
        <path class="cls-1" d="M1205.53,355.31c-13.41,0-25.47-2.41-36.19-7.24-10.72-4.83-19.3-11.72-25.73-20.71-6.43-8.98-9.65-19.63-9.65-31.97,0-18.23,5.69-32.37,17.09-42.42,11.39-10.05,27.81-17.35,49.26-21.91l67.15-14.07c0-15.01-3.15-26.47-9.45-34.38-6.3-7.9-16.15-11.86-29.55-11.86-12.33,0-21.85,2.95-28.55,8.85-6.7,5.9-11.13,13.67-13.27,23.32l-49.46-2.81c4.02-20.64,14-37.33,29.96-50.06,15.95-12.73,36.12-19.1,60.52-19.1,29.21,0,51.07,7.78,65.54,23.32,14.48,15.55,21.71,37.26,21.71,65.14v80.02c0,5.37,1.07,9.05,3.22,11.06,2.14,2.01,5.09,3.02,8.85,3.02h10.46v36.99c-1.61.26-4.22.6-7.84,1-3.62.4-7.31.6-11.06.6-10.19,0-18.84-1.74-25.94-5.23-7.11-3.48-12.53-8.78-16.28-15.88-3.76-7.1-5.77-15.88-6.03-26.34h6.03c-1.34,9.65-5.23,18.3-11.66,25.94s-14.68,13.67-24.73,18.09-21.51,6.63-34.38,6.63ZM1213.97,318.32c11.52,0,21.31-2.07,29.35-6.23,8.04-4.15,14.07-10.05,18.09-17.69,4.02-7.64,6.03-16.82,6.03-27.54v-14.47l-53.48,11.26c-11.53,2.15-19.5,5.57-23.92,10.25-4.42,4.69-6.63,10.93-6.63,18.7s2.68,14.34,8.04,18.9c5.36,4.56,12.87,6.84,22.52,6.84Z"/>
        <path class="cls-1" d="M1359.77,350.42v-36.91h38.22v36.91h-38.22Z"/>
      </g>
    </g>
  </g>
</svg>